<?xml version="1.0" encoding="UTF-8"?>
<svg id="Calque_2" data-name="Calque 2" xmlns="http://www.w3.org/2000/svg" xmlns:xlink="http://www.w3.org/1999/xlink" viewBox="0 0 547.97 387.45">
  <defs>
    <style>
      .cls-1 {
        fill: none;
      }

      .cls-2 {
        fill: #1d1d1b;
      }

      .cls-3 {
        clip-path: url(#clippath);
      }
    </style>
    <clipPath id="clippath">
      <rect class="cls-1" width="547.97" height="387.45"/>
    </clipPath>
  </defs>
  <g id="Calque_1-2" data-name="Calque 1">
    <g class="cls-3">
      <path class="cls-2" d="M259.47,189.24v-.07h1.84c.31,0,.58.05.81.14.23.1.43.22.59.39.16.16.27.35.35.55.08.21.12.42.12.65s-.04.43-.11.64c-.07.21-.19.39-.34.55-.15.16-.36.29-.61.38-.25.1-.54.14-.87.14-.1,0-.31-.02-.6-.05v2.19c0,.45.2.68.61.7v.07h-1.79v-.07c.18,0,.32-.06.43-.17.11-.11.17-.28.17-.53v-4.8c0-.15-.02-.27-.06-.37-.04-.1-.09-.17-.14-.21-.05-.04-.12-.07-.18-.09-.07-.02-.11-.03-.14-.04h-.08ZM260.65,189.39v2.99c.2.04.39.06.58.06.36,0,.67-.11.92-.32.25-.21.38-.6.38-1.17,0-.47-.11-.86-.33-1.16-.22-.3-.56-.45-1.01-.45-.18,0-.35.02-.54.06"/>
      <path class="cls-2" d="M265.98,189.09l1.68,5.43c.09.28.17.48.25.61.08.13.15.21.23.24.07.03.16.06.28.07v.07h-1.83v-.07c.19,0,.33-.02.43-.06.1-.04.15-.15.15-.33,0-.1-.02-.23-.07-.39-.01-.02-.02-.04-.02-.05l-.5-1.68h-1.95l-.45,1.56c-.06.21-.09.38-.09.51,0,.18.04.3.12.35.08.06.19.09.34.09v.07h-1.32v-.07c.19-.02.34-.1.45-.24.11-.14.21-.36.3-.65l1.59-5.46h.41ZM264.7,192.69h1.79l-.92-3.01h-.02l-.86,3.01Z"/>
      <path class="cls-2" d="M269.13,189.25h-.08v-.09h1.95c.31,0,.58.05.79.16.22.11.39.25.51.42.12.17.21.34.26.53.05.19.08.37.08.55,0,.23-.04.45-.13.66-.09.21-.22.39-.39.54-.18.15-.4.26-.66.31v.02c.34.18.65.55.93,1.09l.51.97c.23.43.41.71.55.82.14.12.27.18.41.19v.07h-1.02c-.04-.06-.08-.12-.12-.18-.04-.06-.08-.12-.12-.19-.03-.04-.06-.11-.11-.2-.05-.09-.08-.14-.09-.15l-.67-1.25c-.13-.26-.27-.46-.41-.62-.14-.16-.27-.27-.4-.34-.12-.07-.23-.11-.33-.13-.1-.02-.21-.03-.34-.03v2.32c0,.45.2.68.61.7v.07h-1.79v-.07c.11,0,.21-.03.3-.07.09-.04.16-.11.22-.22.06-.1.09-.24.09-.41v-4.8c0-.25-.05-.43-.16-.53s-.23-.15-.36-.15M270.23,192.25h.32c.34,0,.61-.05.83-.16.21-.11.37-.26.47-.47.1-.2.14-.45.14-.74,0-.24-.04-.48-.13-.72-.09-.23-.23-.43-.44-.59-.21-.16-.49-.24-.84-.24-.14,0-.26.01-.35.04v2.88Z"/>
      <path class="cls-2" d="M276.25,189.16v.07c-.17,0-.31.05-.43.16-.12.11-.18.28-.18.53v4.81c0,.24.06.42.19.53.12.11.26.17.42.17v.07h-1.78v-.07c.16,0,.3-.05.42-.16.12-.11.18-.29.18-.54v-4.81c0-.26-.06-.45-.18-.54-.12-.1-.26-.15-.42-.15v-.07h1.78Z"/>
      <path class="cls-2" d="M279.98,190.38h-.06c-.04-.31-.15-.58-.36-.81-.2-.23-.47-.35-.8-.35-.22,0-.41.06-.58.17-.17.11-.3.27-.39.47-.09.2-.14.43-.14.68,0,.2.03.37.08.53.05.15.14.29.24.41.11.12.23.23.38.33.14.1.34.23.59.39.41.26.73.51.96.76.23.25.34.6.34,1.04,0,.27-.06.53-.18.78-.12.25-.31.46-.56.62s-.56.24-.93.24c-.23,0-.44-.03-.61-.08-.18-.06-.36-.13-.54-.23-.08-.03-.13-.04-.16-.04-.05,0-.09.02-.1.06-.02.04-.04.14-.07.28h-.06v-1.59h.06c.09.46.27.82.53,1.05.26.24.59.36.97.36.28,0,.51-.06.68-.18.17-.12.29-.27.36-.44.07-.17.1-.34.1-.52,0-.36-.1-.65-.29-.87-.19-.23-.48-.46-.87-.69-.27-.17-.47-.3-.6-.39s-.26-.21-.4-.36c-.13-.15-.24-.32-.32-.52s-.12-.43-.12-.69c0-.3.07-.58.21-.86.14-.27.34-.49.59-.66.26-.16.55-.25.87-.25.25,0,.5.05.76.14.04.02.1.03.16.03.08,0,.14-.06.17-.19h.06v1.36Z"/>
      <path class="cls-2" d="M159.21,151.79v-.27h7.93c1.11,0,2.13.11,3.07.32.94.22,1.78.5,2.52.86.74.36,1.38.75,1.92,1.18s1,.86,1.37,1.3c.65.74,1.21,1.55,1.66,2.45.46.9.8,1.85,1.03,2.85.23,1,.34,2.03.34,3.09s-.11,2.07-.34,3.03c-.22.96-.55,1.84-.96,2.66-.42.82-.92,1.55-1.5,2.22-.58.66-1.26,1.26-2.03,1.8-.66.44-1.42.8-2.28,1.07-.86.27-2.02.41-3.48.41h-9.24v-.25h.28c.64,0,1.12-.27,1.44-.82s.48-1.13.48-1.74v-17.55c0-.59-.09-1.08-.26-1.48-.17-.4-.4-.69-.69-.87-.29-.18-.61-.27-.96-.27h-.28ZM163.53,152.62v18.42c0,.9.13,1.57.38,2,.26.43.65.7,1.2.83.54.13,1.33.19,2.38.19,1.49,0,2.75-.17,3.78-.5,1.03-.33,2.02-1.07,2.98-2.22.71-.85,1.28-1.89,1.71-3.12.43-1.23.64-2.72.64-4.47,0-1.38-.17-2.74-.52-4.1-.34-1.35-.87-2.55-1.58-3.61-.79-1.19-1.81-2.12-3.06-2.79-1.24-.67-2.74-1.01-4.5-1.01-.9,0-2.04.13-3.41.38"/>
      <path class="cls-2" d="M189.29,151.23l6.17,19.92c.33,1.03.63,1.78.92,2.24.29.46.57.76.83.88.27.12.6.2,1.01.24v.25h-6.73v-.25c.69,0,1.22-.07,1.59-.22.37-.15.56-.55.56-1.2,0-.36-.09-.84-.27-1.44-.04-.08-.06-.15-.06-.19l-1.83-6.17h-7.13l-1.64,5.71c-.22.78-.34,1.4-.34,1.88,0,.65.14,1.09.43,1.3.29.22.7.32,1.23.32v.25h-4.84v-.25c.69-.07,1.24-.37,1.66-.89.42-.52.78-1.31,1.08-2.38l5.82-20.01h1.51ZM184.6,164.46h6.56l-3.36-11.03h-.06l-3.15,11.03Z"/>
      <path class="cls-2" d="M224.47,151.52v.27c-.42.1-.79.27-1.12.53-.33.26-.65.68-.96,1.28-.32.59-.65,1.45-.99,2.58l-5.78,19.21h-.21l-5.26-19.21h-.07l-5.72,19.21h-.21l-5.86-21.18c-.21-.75-.47-1.29-.77-1.63-.3-.34-.57-.54-.82-.62-.25-.08-.55-.13-.92-.17v-.27h6.39v.27c-.56.04-.98.23-1.27.57-.28.34-.43.75-.43,1.25,0,.38.08.85.24,1.42l4.35,15.71h.06l4.67-15.71-.2-.71c-.19-.68-.47-1.27-.84-1.74-.37-.48-.96-.74-1.75-.78v-.27h6.59v.27c-.75.01-1.23.23-1.45.65-.22.42-.33.81-.33,1.17,0,.45.07.93.21,1.42l4.29,15.71h.06l4.38-14.55c.13-.39.25-.85.36-1.37.11-.53.16-.97.16-1.34,0-.72-.14-1.16-.41-1.34-.28-.18-.72-.29-1.34-.33v-.27h4.94Z"/>
      <path class="cls-2" d="M247.11,151.52v.27c-.52.07-.93.19-1.24.34-.3.15-.54.45-.71.9-.17.45-.25,1.09-.25,1.93v20.39h-.14l-15.82-19.92v14.3c0,1.19.04,2.07.13,2.65.08.58.21.99.36,1.25.34.55.95.84,1.8.88v.25h-5.16v-.25c.58-.03,1.03-.17,1.35-.42.32-.25.55-.7.69-1.36.13-.66.2-1.65.2-2.98v-15.17l-.68-.87c-.61-.78-1.09-1.27-1.45-1.48-.36-.21-.82-.36-1.36-.47v-.27h3.87l15.58,19.7v-15.01c0-1.13-.04-1.97-.12-2.53-.08-.56-.29-1-.63-1.34-.34-.34-.87-.52-1.6-.55v-.27h5.17Z"/>
      <path class="cls-2" d="M280.46,151.52v.27c-.39.05-.67.1-.84.13-.17.04-.35.15-.56.32-.32.27-.52.53-.59.77s-.13.66-.15,1.26c-.03.09-.03.19,0,.28l.71,17.27c.02.73.17,1.35.46,1.88.29.53.92.79,1.89.81v.25h-6.67v-.25c.88-.1,1.47-.39,1.78-.86.31-.47.44-1.2.39-2.19l-.71-17.87h-.06l-7.27,21.17-6.88-20.39h-.06l-.74,16.48c-.04.91.01,1.61.15,2.11.14.5.35.86.65,1.07.3.22.74.38,1.33.48v.25h-5.19v-.25c.66-.01,1.17-.19,1.51-.54.34-.35.57-.78.68-1.3.11-.52.19-1.23.24-2.14l.82-17.05c0-.06-.06-.18-.17-.34-.11-.16-.25-.33-.41-.49-.16-.16-.32-.29-.47-.39-.32-.22-.59-.35-.83-.39-.23-.04-.56-.07-.98-.1v-.27h4.78l6.38,19.02,6.47-19.02h4.32Z"/>
      <path class="cls-2" d="M292.46,151.23l6.17,19.92c.33,1.03.63,1.78.92,2.24.29.46.57.76.83.88.27.12.6.2,1.01.24v.25h-6.73v-.25c.69,0,1.22-.07,1.59-.22.37-.15.56-.55.56-1.2,0-.36-.09-.84-.27-1.44-.04-.08-.06-.15-.06-.19l-1.83-6.17h-7.13l-1.64,5.71c-.22.78-.34,1.4-.34,1.88,0,.65.14,1.09.43,1.3.29.22.7.32,1.23.32v.25h-4.84v-.25c.69-.07,1.24-.37,1.66-.89.42-.52.78-1.31,1.08-2.38l5.82-20.01h1.51ZM287.77,164.46h6.56l-3.36-11.03h-.06l-3.15,11.03Z"/>
      <path class="cls-2" d="M303,151.85h-.28v-.33h7.13c1.15,0,2.12.2,2.92.6.8.4,1.42.91,1.86,1.52.44.62.76,1.27.95,1.95.19.68.29,1.36.29,2.02,0,.84-.16,1.65-.47,2.42-.31.77-.79,1.44-1.44,2-.65.56-1.46.94-2.43,1.14v.06c1.23.67,2.37,2.01,3.41,4.01l1.86,3.55c.84,1.59,1.51,2.59,2.02,3.01.51.42,1.01.66,1.5.71v.25h-3.75c-.16-.23-.31-.45-.45-.67-.14-.22-.29-.44-.45-.69-.09-.16-.23-.4-.41-.72-.18-.32-.29-.5-.33-.54l-2.46-4.59c-.49-.94-1-1.7-1.52-2.28-.52-.58-1-1-1.45-1.25-.45-.25-.85-.41-1.21-.47-.36-.06-.78-.09-1.27-.09v8.51c0,1.65.75,2.5,2.24,2.56v.25h-6.56v-.25c.41-.02.77-.11,1.09-.26.32-.15.58-.42.79-.79.21-.37.31-.88.31-1.51v-17.58c0-.93-.2-1.58-.6-1.96-.4-.38-.84-.57-1.31-.57M307.04,162.83h1.17c1.23,0,2.24-.2,3.03-.6.79-.4,1.36-.97,1.71-1.71.35-.74.53-1.65.53-2.72,0-.89-.16-1.77-.48-2.63-.32-.86-.86-1.58-1.62-2.16-.76-.58-1.78-.88-3.07-.88-.52,0-.95.05-1.29.14v10.56Z"/>
      <path class="cls-2" d="M337.33,156.05h-.22c-.1-1.52-.49-2.5-1.17-2.94-.68-.45-1.52-.67-2.52-.67h-4.1v19.52c0,1.65.75,2.5,2.24,2.56v.25h-6.56v-.25c.62-.02,1.13-.22,1.56-.61s.64-1.03.64-1.95v-19.52h-4.1c-1,0-1.83.22-2.51.67-.68.45-1.07,1.43-1.18,2.94h-.22v-5.68h.22c.15.26.28.46.39.58.11.13.26.23.43.32.18.09.38.15.62.19.24.04.52.06.85.06h13.34c.89,0,1.58-.38,2.07-1.15h.22v5.68Z"/>
      <path class="cls-2" d="M345.41,151.52v.27c-.62,0-1.14.2-1.57.58-.43.39-.64,1.04-.64,1.94v17.65c0,.89.23,1.54.69,1.95.46.41.97.61,1.52.61v.25h-6.53v-.25c.6,0,1.11-.2,1.55-.59.43-.4.65-1.05.65-1.96v-17.65c0-.97-.22-1.63-.65-1.99-.43-.36-.95-.54-1.55-.54v-.27h6.53Z"/>
      <path class="cls-2" d="M368.82,151.52v.27c-.52.07-.93.19-1.24.34-.3.15-.54.45-.71.9-.17.45-.25,1.09-.25,1.93v20.39h-.14l-15.82-19.92v14.3c0,1.19.04,2.07.13,2.65.08.58.21.99.36,1.25.34.55.95.84,1.8.88v.25h-5.16v-.25c.58-.03,1.03-.17,1.35-.42.32-.25.55-.7.69-1.36.13-.66.2-1.65.2-2.98v-15.17l-.68-.87c-.61-.78-1.09-1.27-1.45-1.48-.36-.21-.82-.36-1.36-.47v-.27h3.87l15.58,19.7v-15.01c0-1.13-.04-1.97-.12-2.53-.08-.56-.29-1-.63-1.34-.34-.34-.87-.52-1.6-.55v-.27h5.17Z"/>
      <path class="cls-2" d="M381.37,155.98h-.22c-.13-1.13-.57-2.11-1.31-2.96-.74-.85-1.72-1.27-2.93-1.27-.79,0-1.5.21-2.11.63-.62.42-1.09.99-1.43,1.72-.34.73-.5,1.56-.5,2.49,0,.73.1,1.37.3,1.93.2.56.5,1.06.89,1.49.39.43.85.83,1.38,1.21.53.37,1.25.84,2.15,1.41,1.51.94,2.68,1.87,3.52,2.8s1.26,2.21,1.26,3.83c0,.99-.23,1.94-.68,2.87-.45.92-1.14,1.68-2.05,2.27-.91.59-2.05.88-3.4.88-.85,0-1.6-.1-2.25-.31-.65-.21-1.31-.49-1.99-.86-.28-.1-.47-.16-.57-.16-.2,0-.32.08-.38.24-.06.16-.14.5-.24,1.03h-.24v-5.82h.24c.34,1.7.99,2.99,1.96,3.87.97.87,2.15,1.31,3.54,1.31,1.04,0,1.88-.22,2.51-.66.63-.44,1.06-.98,1.31-1.61.24-.63.36-1.26.36-1.89,0-1.3-.35-2.37-1.06-3.2-.7-.83-1.77-1.67-3.21-2.53-.99-.61-1.72-1.08-2.2-1.42-.48-.34-.96-.77-1.45-1.31-.49-.54-.88-1.17-1.17-1.9-.29-.73-.43-1.57-.43-2.52,0-1.09.26-2.14.77-3.14.51-1,1.24-1.8,2.18-2.41.94-.61,2.01-.91,3.2-.91.9,0,1.83.17,2.78.52.15.08.35.13.6.13.31,0,.52-.24.63-.71h.22v4.97Z"/>
    </g>
  </g>
</svg>