<svg width="35" height="9" viewBox="0 0 35 9" fill="none" xmlns="http://www.w3.org/2000/svg">
<path d="M2.75 9H0.0568182V0.272727H2.86932C3.71591 0.272727 4.44034 0.447443 5.04261 0.796875C5.64489 1.14347 6.10653 1.64205 6.42756 2.29261C6.74858 2.94034 6.90909 3.71591 6.90909 4.61932C6.90909 5.52841 6.74716 6.31108 6.4233 6.96733C6.09943 7.62074 5.62784 8.12358 5.00852 8.47585C4.3892 8.82528 3.63636 9 2.75 9ZM1.11364 8.0625H2.68182C3.40341 8.0625 4.00142 7.9233 4.47585 7.64489C4.95028 7.36648 5.30398 6.97017 5.53693 6.45597C5.76989 5.94176 5.88636 5.32955 5.88636 4.61932C5.88636 3.91477 5.77131 3.30824 5.54119 2.79972C5.31108 2.28835 4.96733 1.89631 4.50994 1.62358C4.05256 1.34801 3.48295 1.21023 2.80114 1.21023H1.11364V8.0625ZM8.62962 9H7.52166L10.7262 0.272727H11.8171L15.0217 9H13.9137L11.3058 1.65341H11.2376L8.62962 9ZM9.03871 5.59091H13.5046V6.52841H9.03871V5.59091ZM17.2866 9L14.9002 0.272727H15.9741L17.7979 7.38068H17.8832L19.7411 0.272727H20.9343L22.7923 7.38068H22.8775L24.7013 0.272727H25.7752L23.3888 9H22.2979L20.3718 2.04545H20.3036L18.3775 9H17.2866ZM34.0124 0.272727V9H32.9897L28.234 2.14773H28.1488V9H27.092V0.272727H28.1147L32.8874 7.14205H32.9727V0.272727H34.0124Z" fill="#141414"/>
</svg>
