<?xml version="1.0" encoding="UTF-8"?>
<svg id="Calque_2" data-name="Calque 2" xmlns="http://www.w3.org/2000/svg" xmlns:xlink="http://www.w3.org/1999/xlink" viewBox="0 0 506.35 358.02">
  <defs>
    <style>
      .cls-1 {
        fill: none;
      }

      .cls-2 {
        fill: #1d1d1b;
      }

      .cls-3 {
        clip-path: url(#clippath);
      }
    </style>
    <clipPath id="clippath">
      <rect class="cls-1" width="506.35" height="358.02"/>
    </clipPath>
  </defs>
  <g id="Calque_1-2" data-name="Calque 1">
    <g class="cls-3">
      <path class="cls-2" d="M225.51,62.59l1.11.02,11.95,26.04,15.37-26.06v53.56h-4.5v-44.22c-.04-.17.02-.2-.24.16l-10.81,18.27"/>
      <path class="cls-2" d="M244.12,125.55l.34.34h7.44c.47,0,.93-.06,1.38-.19.62-.18,1.49-.44,1.75-.55,7.96-3.55,10.19-16.24,6.45-22.88-.77-1.37-1.51-2.94-3.86-5.18,8.08,4.67,10.01,15.7,4.9,23.08-2.09,3.01-4.79,5.55-9.64,6.16-.07,0-.13.01-.2.01h-13.06c-.16-9.25.2-18.55,0-27.8-.02-.92-.01-1.69-.05-2.83l4.79.05"/>
    </g>
  </g>
</svg>